<?xml version="1.0" standalone="no"?>
<!DOCTYPE svg PUBLIC "-//W3C//DTD SVG 20010904//EN"
 "http://www.w3.org/TR/2001/REC-SVG-20010904/DTD/svg10.dtd">
<svg version="1.0" xmlns="http://www.w3.org/2000/svg"
 width="256.000000pt" height="256.000000pt" viewBox="0 0 256.000000 256.000000"
 preserveAspectRatio="xMidYMid meet">

<g transform="translate(0.000000,256.000000) scale(0.100000,-0.100000)"
fill="#000000" stroke="none">
<path d="M420 2496 l0 -63 73 -6 c328 -29 596 -262 677 -592 19 -74 22 -107
17 -200 -6 -131 -24 -202 -76 -310 -94 -190 -257 -329 -461 -394 -96 -30 -211
-41 -442 -41 l-208 0 0 -445 0 -445 63 0 64 0 16 97 c51 314 308 537 622 537
117 1 183 -14 280 -59 134 -64 232 -162 300 -300 34 -68 65 -186 65 -246 l0
-29 575 0 575 0 0 415 0 415 -65 0 -65 0 0 -44 c0 -145 -125 -338 -266 -409
-114 -58 -257 -73 -379 -42 -173 46 -313 187 -360 366 -12 45 -15 206 -15 957
l0 902 -495 0 -495 0 0 -64z"/>
</g>
</svg>
